<svg xmlns="http://www.w3.org/2000/svg" viewBox="0 0 64 64" width="64px" height="64px"><linearGradient id="xOmzX_brmIlT7w5Ya5OeUa" x1="32" x2="32" y1="10.667" y2="53.503" gradientUnits="userSpaceOnUse" spreadMethod="reflect"><stop offset="0" stop-color="#1a6dff"/><stop offset="1" stop-color="#c822ff"/></linearGradient><path fill="url(#xOmzX_brmIlT7w5Ya5OeUa)" d="M58,52H6c-1.654,0-3-1.346-3-3V19c0-1.654,1.346-3,3-3h52c1.654,0,3,1.346,3,3v30 C61,50.654,59.654,52,58,52z M6,18c-0.552,0-1,0.448-1,1v30c0,0.552,0.448,1,1,1h52c0.552,0,1-0.448,1-1V19c0-0.552-0.448-1-1-1H6z"/><linearGradient id="xOmzX_brmIlT7w5Ya5OeUb" x1="32" x2="32" y1="10.667" y2="53.503" gradientUnits="userSpaceOnUse" spreadMethod="reflect"><stop offset="0" stop-color="#1a6dff"/><stop offset="1" stop-color="#c822ff"/></linearGradient><path fill="url(#xOmzX_brmIlT7w5Ya5OeUb)" d="M5 12H59V14H5z"/><linearGradient id="xOmzX_brmIlT7w5Ya5OeUc" x1="28.29" x2="28.29" y1="26.5" y2="42.347" gradientUnits="userSpaceOnUse" spreadMethod="reflect"><stop offset="0" stop-color="#6dc7ff"/><stop offset="1" stop-color="#e6abff"/></linearGradient><path fill="url(#xOmzX_brmIlT7w5Ya5OeUc)" d="M25.311 41L27.603 27 31.27 27 28.976 41z"/><linearGradient id="xOmzX_brmIlT7w5Ya5OeUd" x1="36.773" x2="36.773" y1="26.5" y2="42.347" gradientUnits="userSpaceOnUse" spreadMethod="reflect"><stop offset="0" stop-color="#6dc7ff"/><stop offset="1" stop-color="#e6abff"/></linearGradient><path fill="url(#xOmzX_brmIlT7w5Ya5OeUd)" d="M42.274,27.565C41.547,27.292,40.409,27,38.987,27c-3.623,0-6.175,1.824-6.197,4.439 c-0.02,1.933,1.822,3.011,3.213,3.655c1.427,0.659,1.907,1.08,1.9,1.669c-0.009,0.902-1.14,1.314-2.194,1.314 c-1.468,0-2.247-0.204-3.451-0.706l-0.472-0.214l-0.515,3.011c0.856,0.375,2.44,0.701,4.084,0.718c3.854,0,6.356-1.803,6.385-4.596 c0.014-1.53-0.963-2.695-3.078-3.655c-1.282-0.622-2.066-1.037-2.058-1.668c0-0.559,0.664-1.157,2.1-1.157 c1.199-0.019,2.067,0.243,2.744,0.515l0.329,0.155L42.274,27.565"/><linearGradient id="xOmzX_brmIlT7w5Ya5OeUe" x1="48.06" x2="48.06" y1="26.5" y2="42.347" gradientUnits="userSpaceOnUse" spreadMethod="reflect"><stop offset="0" stop-color="#6dc7ff"/><stop offset="1" stop-color="#e6abff"/></linearGradient><path fill="url(#xOmzX_brmIlT7w5Ya5OeUe)" d="M52,27h-3.158c-0.878,0-1.534,0.518-1.92,1.394L41.477,41h3.85c0,0,0.63-1.813,0.772-2.177 c0.421,0,4.161,0.083,4.696,0.083C50.904,39.378,51.241,41,51.241,41h3.402l-2.789-14 M47.154,36c0.303-1,1.461-3.802,1.461-3.802 c-0.022,0.036,0.301-0.8,0.486-1.305l0.248,1.191c0,0,0.702,2.915,0.849,3.915H47.154z"/><linearGradient id="xOmzX_brmIlT7w5Ya5OeUf" x1="17.738" x2="17.738" y1="26.5" y2="42.347" gradientUnits="userSpaceOnUse" spreadMethod="reflect"><stop offset="0" stop-color="#6dc7ff"/><stop offset="1" stop-color="#e6abff"/></linearGradient><path fill="url(#xOmzX_brmIlT7w5Ya5OeUf)" d="M23,27h-0.586l-3.679,9.295l-0.427-1.803c-0.025-0.081-0.066-0.163-0.095-0.244l-1.235-6.023 C16.756,27.372,16.291,27,15.495,27H9.404l-0.047,0.397c1.451,0.351,2.728,0.88,3.862,1.521L16.643,41h4l5.476-14H23z"/></svg>